<svg width="100%" class="logo__text-img" viewBox="0 0 54 14" fill="none" xmlns="http://www.w3.org/2000/svg">
<path d="M10.335 0.368314C10.5567 0.368314 10.7375 0.444147 10.8775 0.595813C11.0292 0.735813 11.105 0.916646 11.105 1.13831C11.105 1.34831 11.0292 1.52915 10.8775 1.68081C10.7375 1.83248 10.5567 1.90831 10.335 1.90831H6.5725V12.4083C6.5725 12.63 6.49667 12.8166 6.345 12.9683C6.205 13.1083 6.02417 13.1783 5.8025 13.1783C5.5925 13.1783 5.41167 13.1083 5.26 12.9683C5.10833 12.8166 5.0325 12.63 5.0325 12.4083V1.90831H1.27C1.06 1.90831 0.879167 1.83248 0.7275 1.68081C0.575833 1.52915 0.5 1.34831 0.5 1.13831C0.5 0.916646 0.575833 0.735813 0.7275 0.595813C0.879167 0.444147 1.06 0.368314 1.27 0.368314H10.335Z" fill="#1F2041"/>
<path d="M16.9076 0.368314C17.7943 0.368314 18.6285 0.53748 19.4101 0.875813C20.2034 1.21415 20.8918 1.67498 21.4751 2.25831C22.0701 2.84165 22.5368 3.52998 22.8751 4.32331C23.2134 5.10498 23.3826 5.93915 23.3826 6.82581C23.3826 7.86415 23.1609 8.82081 22.7176 9.69581C22.2743 10.5708 21.6735 11.3058 20.9151 11.9008C20.9151 11.9008 20.9035 11.9125 20.8801 11.9358C20.3201 12.3558 19.7076 12.6883 19.0426 12.9333C18.3776 13.1666 17.6659 13.2833 16.9076 13.2833C16.0209 13.2833 15.1868 13.1141 14.4051 12.7758C13.6234 12.4375 12.9351 11.9766 12.3401 11.3933C11.7568 10.81 11.2959 10.1275 10.9576 9.34581C10.6193 8.56415 10.4501 7.72415 10.4501 6.82581C10.4501 5.84581 10.6484 4.94165 11.0451 4.11331C11.4418 3.27331 11.9843 2.55581 12.6726 1.96081L12.7426 1.89081C12.7543 1.89081 12.7718 1.87915 12.7951 1.85581C13.3551 1.38915 13.9851 1.02748 14.6851 0.770814C15.3851 0.50248 16.1259 0.368314 16.9076 0.368314ZM16.9076 11.7433C17.3509 11.7433 17.771 11.6908 18.1676 11.5858C18.576 11.4691 18.9609 11.3116 19.3226 11.1133L13.1801 3.64081C12.8068 4.07248 12.5151 4.56248 12.3051 5.11081C12.0951 5.64748 11.9901 6.21915 11.9901 6.82581C11.9901 7.50248 12.1185 8.13831 12.3751 8.73331C12.6318 9.32831 12.9818 9.85331 13.4251 10.3083C13.8801 10.7516 14.4051 11.1016 15.0001 11.3583C15.5951 11.615 16.2309 11.7433 16.9076 11.7433ZM20.5301 10.1508C20.9384 9.70748 21.2535 9.20581 21.4751 8.64581C21.7085 8.07415 21.8251 7.46748 21.8251 6.82581C21.8251 6.14915 21.6968 5.51331 21.4401 4.91831C21.1834 4.32331 20.8276 3.80415 20.3726 3.36081C19.9293 2.90581 19.4101 2.54998 18.8151 2.29331C18.2201 2.03665 17.5843 1.90831 16.9076 1.90831C16.4409 1.90831 15.9918 1.97248 15.5601 2.10081C15.1284 2.21748 14.7259 2.39248 14.3526 2.62581L20.5301 10.1508Z" fill="#1F2041"/>
<path d="M30.351 7.63081C30.1177 7.63081 29.9194 7.53748 29.756 7.35081L25.2585 1.57581C25.1302 1.41248 25.0777 1.23165 25.101 1.03331C25.1244 0.823313 25.2177 0.654147 25.381 0.525814C25.5444 0.39748 25.7252 0.350813 25.9235 0.385813C26.1335 0.409146 26.3027 0.50248 26.431 0.665813L30.351 5.67081L34.1835 0.753313C34.3119 0.58998 34.4752 0.496646 34.6735 0.473313C34.8835 0.44998 35.0702 0.50248 35.2335 0.630813C35.3969 0.759146 35.4902 0.928313 35.5135 1.13831C35.5369 1.33665 35.4844 1.51748 35.356 1.68081L30.946 7.35081C30.7944 7.53748 30.596 7.63081 30.351 7.63081ZM35.2685 13.2658C35.2219 13.2658 35.146 13.26 35.041 13.2483C34.9477 13.2366 34.8369 13.2075 34.7085 13.1608C34.5802 13.1025 34.4402 13.0266 34.2885 12.9333C34.1485 12.8283 34.0085 12.6883 33.8685 12.5133L30.351 7.98081L26.5185 12.9158C26.3902 13.0791 26.221 13.1725 26.011 13.1958C25.8127 13.2191 25.6319 13.1666 25.4685 13.0383C25.3052 12.91 25.2119 12.7466 25.1885 12.5483C25.1652 12.3383 25.2177 12.1516 25.346 11.9883L29.756 6.31831C29.896 6.13165 30.0885 6.03831 30.3335 6.03831C30.5902 6.03831 30.7944 6.13165 30.946 6.31831L35.041 11.5683C35.0994 11.65 35.1519 11.7025 35.1985 11.7258C35.2452 11.7491 35.2802 11.7666 35.3035 11.7783C35.5019 11.7783 35.6652 11.8483 35.7935 11.9883C35.9335 12.1166 36.0094 12.28 36.021 12.4783C36.0444 12.6883 35.986 12.8691 35.846 13.0208C35.706 13.1725 35.531 13.2541 35.321 13.2658H35.2685Z" fill="#1F2041"/>
<path d="M39.7343 13.2658C39.5126 13.2658 39.326 13.19 39.1743 13.0383C39.0226 12.8866 38.9468 12.7 38.9468 12.4783V1.10331C38.9468 0.893313 39.0226 0.71248 39.1743 0.560813C39.326 0.409146 39.5126 0.333313 39.7343 0.333313C39.9443 0.333313 40.1251 0.409146 40.2768 0.560813C40.4285 0.71248 40.5043 0.893313 40.5043 1.10331V12.4783C40.5043 12.7 40.4285 12.8866 40.2768 13.0383C40.1251 13.19 39.9443 13.2658 39.7343 13.2658Z" fill="#1F2041"/>
<path d="M52.9377 13.2308C52.681 13.2308 52.4827 13.1316 52.3427 12.9333L45.0452 3.34331V12.4783C45.0452 12.6883 44.9693 12.8691 44.8177 13.0208C44.6777 13.1608 44.5027 13.2308 44.2927 13.2308C44.0943 13.2308 43.9193 13.1608 43.7677 13.0208C43.616 12.8691 43.5402 12.6883 43.5402 12.4783V1.12081C43.5402 0.95748 43.5868 0.811647 43.6802 0.683314C43.7735 0.55498 43.9018 0.46748 44.0652 0.420813C44.2168 0.36248 44.3685 0.356646 44.5202 0.403313C44.6718 0.44998 44.8002 0.53748 44.9052 0.665813L52.1852 10.2733V1.12081C52.1852 0.92248 52.2552 0.74748 52.3952 0.595813C52.5468 0.444147 52.7277 0.368314 52.9377 0.368314C53.1477 0.368314 53.3227 0.444147 53.4627 0.595813C53.6143 0.74748 53.6902 0.92248 53.6902 1.12081V12.4783C53.6902 12.6416 53.6435 12.7875 53.5502 12.9158C53.4568 13.0441 53.3343 13.1375 53.1827 13.1958C53.066 13.2191 52.9843 13.2308 52.9377 13.2308Z" fill="#1F2041"/>
</svg>
